<svg id="Layer_1" data-name="Layer 1" xmlns="http://www.w3.org/2000/svg" viewBox="0 0 208 80"><defs><style>.cls-1{fill:#343741;}.cls-1,.cls-2,.cls-3{fill-rule:evenodd;}.cls-2{fill:#f04e98;}.cls-3{fill:#00bfb3;}</style></defs><title>Kibana Color Lockup</title><path d="M84.21,40.23l2.49-3.11L93,30.45H98l-8.34,8.9,8.87,11.83H93.39l-6.65-9.09-2.42,2v7.1H80V22h4.37V36.24l-.23,4Z"/><path d="M101.64,25a2.45,2.45,0,0,1,.65-1.82,2.54,2.54,0,0,1,1.85-.63,2.49,2.49,0,0,1,1.81.63,2.45,2.45,0,0,1,.64,1.82,2.39,2.39,0,0,1-.64,1.77,2.42,2.42,0,0,1-1.81.65,2.47,2.47,0,0,1-1.85-.65A2.39,2.39,0,0,1,101.64,25Zm4.67,26.23h-4.4V30.45h4.4Z"/><path d="M123.21,30.07a7.2,7.2,0,0,1,6,2.81q2.17,2.82,2.17,7.9c0,3.4-.73,6-2.2,7.94a8,8,0,0,1-12.2,0h-.3l-.81,2.45h-3.3V22H117V29c0,.51,0,1.27-.08,2.28s-.08,1.66-.11,1.93H117A7,7,0,0,1,123.21,30.07Zm-1.15,3.6a4.46,4.46,0,0,0-3.83,1.57c-.78,1-1.19,2.79-1.21,5.24v.3q0,3.78,1.2,5.48a4.46,4.46,0,0,0,3.92,1.7,4,4,0,0,0,3.55-1.86,9.8,9.8,0,0,0,1.21-5.36Q126.9,33.67,122.06,33.67Z"/><path d="M149.51,51.18l-.88-2.88h-.15a8.45,8.45,0,0,1-3,2.57,9.46,9.46,0,0,1-3.9.69,6.6,6.6,0,0,1-4.77-1.65,6.2,6.2,0,0,1-1.72-4.67,5.49,5.49,0,0,1,2.39-4.84q2.37-1.63,7.25-1.78l3.58-.11V37.4a4.24,4.24,0,0,0-.92-3,3.78,3.78,0,0,0-2.88-1,10.08,10.08,0,0,0-3.06.46A25.65,25.65,0,0,0,138.62,35l-1.43-3.15a15.48,15.48,0,0,1,3.7-1.34,16.74,16.74,0,0,1,3.79-.46q3.94,0,6,1.73t2,5.41v14Zm-6.56-3a5.42,5.42,0,0,0,3.85-1.34,4.84,4.84,0,0,0,1.46-3.76v-1.8l-2.67.12a9,9,0,0,0-4.52,1,3.15,3.15,0,0,0-1.42,2.84,2.79,2.79,0,0,0,.82,2.14A3.56,3.56,0,0,0,143,48.18Z"/><path d="M177.06,51.18h-4.43V38.43a5.6,5.6,0,0,0-1-3.58,3.74,3.74,0,0,0-3.07-1.18,4.89,4.89,0,0,0-4.09,1.65q-1.29,1.65-1.29,5.53V51.18h-4.41V30.45h3.45l.62,2.71h.23a6.08,6.08,0,0,1,2.66-2.28,8.87,8.87,0,0,1,3.82-.81q7.47,0,7.47,7.59Z"/><path d="M196.16,51.18l-.88-2.88h-.15a8.45,8.45,0,0,1-3,2.57,9.46,9.46,0,0,1-3.9.69,6.59,6.59,0,0,1-4.77-1.65,6.2,6.2,0,0,1-1.72-4.67,5.49,5.49,0,0,1,2.39-4.84q2.37-1.63,7.25-1.78l3.58-.11V37.4a4.24,4.24,0,0,0-.92-3,3.78,3.78,0,0,0-2.88-1,10.08,10.08,0,0,0-3.06.46A25.65,25.65,0,0,0,185.27,35l-1.43-3.15a15.48,15.48,0,0,1,3.7-1.34,16.8,16.8,0,0,1,3.79-.46q3.94,0,6,1.73t2,5.41v14Zm-6.56-3a5.42,5.42,0,0,0,3.85-1.34,4.84,4.84,0,0,0,1.46-3.76v-1.8l-2.67.12a9,9,0,0,0-4.52,1,3.15,3.15,0,0,0-1.42,2.84,2.79,2.79,0,0,0,.82,2.14A3.54,3.54,0,0,0,189.6,48.18Z"/><path class="cls-1" d="M8,32V65.58L31.87,38.09A49.82,49.82,0,0,0,8,32Z"/><path class="cls-2" d="M8,8V32a49.82,49.82,0,0,1,23.87,6.09L58,8Z"/><path class="cls-3" d="M37,41.31,12.53,69.51,10.37,72H57A50,50,0,0,0,37,41.31Z"/></svg>